<svg width="294" height="92" viewBox="0 0 294 92" fill="none" xmlns="http://www.w3.org/2000/svg"><path fill="#dab6a7" d="M 1535.996094 992.277344 C 1521.289062 987.417969 1506.523438 982.742188 1491.628906 978.632812 C 1476.800781 974.394531 1461.722656 970.59375 1446.703125 967.476562 C 1431.5625 964.550781 1416.359375 962.242188 1401.09375 961.121094 C 1385.828125 960.1875 1370.558594 960.25 1355.355469 961.683594 C 1340.214844 963.242188 1325.136719 965.859375 1310.304688 969.347656 C 1295.476562 972.960938 1280.707031 977.324219 1266.128906 982.058594 C 1236.902344 991.714844 1207.929688 1002.246094 1178.707031 1012.839844 C 1120.507812 1034.148438 1061.5625 1053.902344 1002.117188 1071.785156 C 972.394531 1080.882812 942.550781 1089.109375 912.390625 1096.523438 L 822.164062 1119.515625 C 807.085938 1123.253906 792.132812 1127.242188 776.925781 1130.667969 C 761.722656 1134.035156 746.519531 1137.273438 731.253906 1140.265625 C 700.722656 1146.246094 669.941406 1151.417969 639.097656 1155.59375 C 577.347656 1163.695312 514.972656 1168.367188 452.601562 1166.683594 C 390.289062 1165.1875 327.855469 1157.585938 267.539062 1141.574219 C 237.441406 1133.347656 207.96875 1122.753906 179.742188 1109.671875 C 151.640625 1096.335938 124.535156 1080.507812 100.980469 1060.195312 L 100.359375 1059.636719 L 98.675781 1058.265625 L 98.613281 1058.203125 L 95.871094 1055.773438 L 98.738281 1058.015625 L 98.800781 1058.078125 L 100.546875 1059.324219 L 101.167969 1059.820312 C 151.078125 1096.648438 210.027344 1118.644531 269.78125 1132.414062 C 299.691406 1139.394531 330.160156 1144.128906 360.691406 1147.179688 C 391.289062 1150.546875 421.945312 1151.917969 452.726562 1151.980469 C 514.226562 1151.917969 575.664062 1147.058594 636.605469 1138.023438 C 697.542969 1129.113281 758.046875 1117.398438 817.742188 1101.445312 L 907.65625 1079.015625 C 922.609375 1075.152344 937.6875 1071.785156 952.582031 1067.546875 L 997.195312 1054.960938 C 1056.640625 1038.074219 1115.273438 1018.820312 1173.96875 999.195312 C 1203.257812 989.472656 1232.667969 979.191406 1262.578125 970.46875 C 1277.53125 966.167969 1292.671875 962.179688 1308.0625 959.003906 C 1323.453125 955.949219 1339.03125 953.644531 1354.734375 952.710938 C 1370.4375 951.960938 1386.199219 952.585938 1401.777344 954.207031 C 1417.355469 956.011719 1432.683594 959.066406 1447.824219 962.742188 C 1478.109375 970.28125 1507.207031 980.6875 1535.996094 992.277344 Z M 1535.996094 992.277344 " fill-opacity="1" fill-rule="nonzero"/><path fill="#dab6a7" d="M 1418.851562 851.828125 C 1464.773438 901.367188 1472.0625 969.347656 1472.0625 969.347656 C 1472.0625 969.347656 1404.832031 957.007812 1358.847656 907.472656 C 1358.410156 906.972656 1357.910156 906.476562 1357.476562 905.976562 C 1322.082031 866.847656 1381.152344 812.074219 1417.480469 850.332031 C 1417.917969 850.832031 1418.351562 851.332031 1418.851562 851.828125 Z M 1418.851562 851.828125 " fill-opacity="1" fill-rule="nonzero"/><path fill="#dab6a7" d="M 1354.484375 1022.558594 C 1404.019531 976.636719 1472.003906 969.347656 1472.003906 969.347656 C 1472.003906 969.347656 1459.664062 1036.582031 1410.128906 1082.566406 C 1409.628906 1083 1409.128906 1083.5 1408.632812 1083.9375 C 1369.5 1119.328125 1314.730469 1060.257812 1352.988281 1023.929688 C 1353.488281 1023.496094 1353.984375 1022.996094 1354.484375 1022.558594 Z M 1354.484375 1022.558594 " fill-opacity="1" fill-rule="nonzero"/><path fill="#dab6a7" d="M 1140.507812 920.496094 C 1186.621094 946.976562 1207.992188 996.390625 1207.992188 996.390625 C 1207.992188 996.390625 1154.59375 1002.871094 1108.480469 976.386719 C 1108.046875 976.140625 1107.546875 975.828125 1107.109375 975.578125 C 1071.34375 954.453125 1102.9375 899.496094 1139.199219 919.746094 C 1139.574219 919.933594 1140.074219 920.246094 1140.507812 920.496094 Z M 1140.507812 920.496094 " fill-opacity="1" fill-rule="nonzero"/><path fill="#dab6a7" d="M 1132.097656 1063.808594 C 1158.578125 1017.699219 1207.992188 996.328125 1207.992188 996.328125 C 1207.992188 996.328125 1214.472656 1049.726562 1187.992188 1095.835938 C 1187.742188 1096.273438 1187.429688 1096.773438 1187.179688 1097.207031 C 1166.058594 1132.976562 1111.097656 1101.382812 1131.351562 1065.117188 C 1131.597656 1064.746094 1131.847656 1064.308594 1132.097656 1063.808594 Z M 1132.097656 1063.808594 " fill-opacity="1" fill-rule="nonzero"/><path fill="#dab6a7" d="M 892.761719 1010.222656 C 932.890625 1033.277344 951.460938 1076.210938 951.460938 1076.210938 C 951.460938 1076.210938 904.976562 1081.816406 864.910156 1058.824219 C 864.535156 1058.574219 864.101562 1058.390625 863.726562 1058.140625 C 832.632812 1039.757812 860.113281 991.964844 891.640625 1009.539062 C 891.953125 1009.785156 892.390625 1009.972656 892.761719 1010.222656 Z M 892.761719 1010.222656 " fill-opacity="1" fill-rule="nonzero"/><path fill="#dab6a7" d="M 885.472656 1134.90625 C 908.527344 1094.777344 951.460938 1076.210938 951.460938 1076.210938 C 951.460938 1076.210938 957.066406 1122.695312 934.074219 1162.757812 C 933.824219 1163.132812 933.636719 1163.570312 933.390625 1163.941406 C 915.007812 1195.035156 867.214844 1167.558594 884.785156 1136.027344 C 884.972656 1135.714844 885.222656 1135.28125 885.472656 1134.90625 Z M 885.472656 1134.90625 " fill-opacity="1" fill-rule="nonzero"/><path fill="#dab6a7" d="M 628.128906 1083.4375 C 661.15625 1102.378906 676.421875 1137.773438 676.421875 1137.773438 C 676.421875 1137.773438 638.160156 1142.382812 605.136719 1123.441406 C 604.824219 1123.253906 604.453125 1123.066406 604.140625 1122.878906 C 578.53125 1107.738281 601.148438 1068.421875 627.132812 1082.878906 C 627.507812 1083.0625 627.816406 1083.25 628.128906 1083.4375 Z M 628.128906 1083.4375 " fill-opacity="1" fill-rule="nonzero"/><path fill="#dab6a7" d="M 622.148438 1186.0625 C 641.089844 1153.039062 676.484375 1137.773438 676.484375 1137.773438 C 676.484375 1137.773438 681.09375 1176.03125 662.152344 1209.054688 C 661.964844 1209.367188 661.777344 1209.742188 661.589844 1210.054688 C 646.449219 1235.664062 607.132812 1213.042969 621.585938 1187.058594 C 621.773438 1186.6875 621.960938 1186.375 622.148438 1186.0625 Z M 622.148438 1186.0625 " fill-opacity="1" fill-rule="nonzero"/><path fill="#dab6a7" d="M 354.148438 1102.941406 C 376.582031 1122.507812 382.9375 1151.917969 382.9375 1151.917969 C 382.9375 1151.917969 352.902344 1149.675781 330.472656 1130.109375 C 330.222656 1129.921875 330.035156 1129.734375 329.785156 1129.546875 C 312.464844 1114.09375 335.769531 1087.300781 353.464844 1102.378906 C 353.714844 1102.566406 353.964844 1102.753906 354.148438 1102.941406 Z M 354.148438 1102.941406 " fill-opacity="1" fill-rule="nonzero"/><path fill="#dab6a7" d="M 333.960938 1180.703125 C 353.527344 1158.273438 382.9375 1151.917969 382.9375 1151.917969 C 382.9375 1151.917969 380.695312 1181.949219 361.128906 1204.382812 C 360.941406 1204.632812 360.753906 1204.820312 360.566406 1205.066406 C 345.113281 1222.390625 318.320312 1199.085938 333.402344 1181.390625 C 333.585938 1181.203125 333.773438 1180.953125 333.960938 1180.703125 Z M 333.960938 1180.703125 " fill-opacity="1" fill-rule="nonzero"/><path fill="#dab6a7" d="M 111.574219 1068.109375 C 111.574219 1068.109375 85.839844 1021.625 114.816406 1000.441406 C 114.816406 1000.441406 60.542969 1021.4375 111.574219 1068.109375 Z M 111.574219 1068.109375 " fill-opacity="1" fill-rule="nonzero"/><path fill="#dab6a7" d="M 113.195312 1069.105469 C 113.195312 1069.105469 66.710938 1043.371094 45.527344 1072.347656 C 45.527344 1072.410156 66.523438 1018.074219 113.195312 1069.105469 Z M 113.195312 1069.105469 " fill-opacity="1" fill-rule="nonzero"/><path fill="#dab6a7" d="M 77.304688 1024.304688 C 77.304688 1024.960938 77.242188 1025.609375 77.113281 1026.25 C 76.984375 1026.890625 76.796875 1027.515625 76.546875 1028.121094 C 76.292969 1028.726562 75.988281 1029.300781 75.625 1029.84375 C 75.261719 1030.386719 74.847656 1030.890625 74.382812 1031.355469 C 73.921875 1031.816406 73.417969 1032.230469 72.875 1032.59375 C 72.328125 1032.957031 71.753906 1033.265625 71.148438 1033.515625 C 70.542969 1033.765625 69.921875 1033.957031 69.28125 1034.082031 C 68.636719 1034.210938 67.988281 1034.273438 67.335938 1034.273438 C 66.679688 1034.273438 66.03125 1034.210938 65.390625 1034.082031 C 64.746094 1033.957031 64.125 1033.765625 63.519531 1033.515625 C 62.914062 1033.265625 62.339844 1032.957031 61.796875 1032.59375 C 61.25 1032.230469 60.746094 1031.816406 60.285156 1031.355469 C 59.820312 1030.890625 59.410156 1030.386719 59.046875 1029.84375 C 58.679688 1029.300781 58.375 1028.726562 58.125 1028.121094 C 57.875 1027.515625 57.683594 1026.890625 57.554688 1026.25 C 57.429688 1025.609375 57.363281 1024.960938 57.363281 1024.304688 C 57.363281 1023.652344 57.429688 1023.003906 57.554688 1022.359375 C 57.683594 1021.71875 57.875 1021.09375 58.125 1020.488281 C 58.375 1019.886719 58.679688 1019.308594 59.046875 1018.765625 C 59.410156 1018.222656 59.820312 1017.71875 60.285156 1017.253906 C 60.746094 1016.792969 61.25 1016.378906 61.796875 1016.015625 C 62.339844 1015.652344 62.914062 1015.34375 63.519531 1015.09375 C 64.125 1014.84375 64.746094 1014.65625 65.390625 1014.527344 C 66.03125 1014.398438 66.679688 1014.335938 67.335938 1014.335938 C 67.988281 1014.335938 68.636719 1014.398438 69.28125 1014.527344 C 69.921875 1014.65625 70.542969 1014.84375 71.148438 1015.09375 C 71.753906 1015.34375 72.328125 1015.652344 72.875 1016.015625 C 73.417969 1016.378906 73.921875 1016.792969 74.382812 1017.253906 C 74.847656 1017.71875 75.261719 1018.222656 75.625 1018.765625 C 75.988281 1019.308594 76.292969 1019.886719 76.546875 1020.488281 C 76.796875 1021.09375 76.984375 1021.71875 77.113281 1022.359375 C 77.242188 1023.003906 77.304688 1023.652344 77.304688 1024.304688 Z M 77.304688 1024.304688 " fill-opacity="1" fill-rule="nonzero"/><path fill="#dab6a7" d="M 1535.996094 992.277344 C 1564.78125 980.6875 1593.945312 970.28125 1624.226562 962.679688 C 1639.367188 959.003906 1654.695312 955.949219 1670.273438 954.144531 C 1685.851562 952.460938 1701.617188 951.835938 1717.320312 952.648438 C 1733.019531 953.582031 1748.597656 955.886719 1763.988281 958.941406 C 1779.316406 962.121094 1794.460938 966.105469 1809.476562 970.40625 C 1839.386719 979.128906 1868.796875 989.347656 1898.082031 999.132812 C 1956.777344 1018.757812 2015.476562 1038.011719 2074.855469 1054.898438 L 2119.472656 1067.488281 C 2134.363281 1071.722656 2149.378906 1075.089844 2164.398438 1078.953125 L 2254.3125 1101.382812 C 2314.003906 1117.335938 2374.507812 1129.113281 2435.449219 1137.960938 C 2496.324219 1146.996094 2557.824219 1151.917969 2619.328125 1151.917969 C 2650.109375 1151.855469 2680.765625 1150.484375 2711.359375 1147.121094 C 2741.953125 1144.066406 2772.363281 1139.332031 2802.269531 1132.351562 C 2862.027344 1118.644531 2920.910156 1096.648438 2970.882812 1059.761719 L 2971.507812 1059.261719 L 2973.25 1058.015625 L 2973.3125 1057.953125 L 2976.179688 1055.710938 L 2973.4375 1058.140625 L 2973.375 1058.203125 L 2971.691406 1059.574219 L 2971.070312 1060.132812 C 2947.515625 1080.382812 2920.410156 1096.210938 2892.308594 1109.609375 C 2864.082031 1122.753906 2834.609375 1133.285156 2804.511719 1141.511719 C 2744.195312 1157.523438 2681.761719 1165.128906 2619.449219 1166.621094 C 2557.078125 1168.304688 2494.707031 1163.632812 2432.957031 1155.53125 C 2402.113281 1151.355469 2371.332031 1146.183594 2340.796875 1140.203125 C 2325.53125 1137.210938 2310.265625 1134.035156 2295.125 1130.605469 C 2279.921875 1127.179688 2264.964844 1123.191406 2249.886719 1119.453125 L 2159.660156 1096.460938 C 2129.503906 1089.046875 2099.65625 1080.757812 2069.933594 1071.722656 C 2010.488281 1053.777344 1951.542969 1034.027344 1893.347656 1012.777344 C 1864.121094 1002.246094 1835.210938 991.65625 1805.925781 981.996094 C 1791.28125 977.261719 1776.574219 972.898438 1761.746094 969.285156 C 1746.855469 965.796875 1731.835938 963.179688 1716.695312 961.621094 C 1701.554688 960.1875 1686.226562 960.125 1670.960938 961.058594 C 1655.691406 962.117188 1640.488281 964.425781 1625.347656 967.414062 C 1610.332031 970.53125 1595.25 974.332031 1580.421875 978.570312 C 1565.46875 982.742188 1550.699219 987.417969 1535.996094 992.277344 Z M 1535.996094 992.277344 " fill-opacity="1" fill-rule="nonzero"/><path fill="#dab6a7" d="M 1653.203125 851.828125 C 1607.277344 901.367188 1599.988281 969.347656 1599.988281 969.347656 C 1599.988281 969.347656 1667.222656 957.007812 1713.207031 907.472656 C 1713.644531 906.972656 1714.140625 906.476562 1714.578125 905.976562 C 1749.96875 866.847656 1690.898438 812.074219 1654.570312 850.332031 C 1654.136719 850.832031 1653.636719 851.332031 1653.203125 851.828125 Z M 1653.203125 851.828125 " fill-opacity="1" fill-rule="nonzero"/><path fill="#dab6a7" d="M 1717.503906 1022.558594 C 1667.96875 976.636719 1599.988281 969.347656 1599.988281 969.347656 C 1599.988281 969.347656 1612.324219 1036.582031 1661.863281 1082.566406 C 1662.359375 1083 1662.859375 1083.5 1663.359375 1083.9375 C 1702.488281 1119.328125 1757.261719 1060.257812 1719 1023.929688 C 1718.503906 1023.496094 1718.003906 1022.996094 1717.503906 1022.558594 Z M 1717.503906 1022.558594 " fill-opacity="1" fill-rule="nonzero"/><path fill="#dab6a7" d="M 1931.480469 920.496094 C 1885.371094 946.976562 1864 996.390625 1864 996.390625 C 1864 996.390625 1917.398438 1002.871094 1963.507812 976.386719 C 1963.945312 976.140625 1964.441406 975.828125 1964.878906 975.578125 C 2000.644531 954.453125 1969.054688 899.496094 1932.789062 919.746094 C 1932.414062 919.933594 1931.980469 920.246094 1931.480469 920.496094 Z M 1931.480469 920.496094 " fill-opacity="1" fill-rule="nonzero"/><path fill="#dab6a7" d="M 1939.890625 1063.808594 C 1913.410156 1017.699219 1863.996094 996.328125 1863.996094 996.328125 C 1863.996094 996.328125 1857.519531 1049.726562 1884 1095.835938 C 1884.25 1096.273438 1884.558594 1096.773438 1884.808594 1097.207031 C 1905.933594 1132.976562 1960.890625 1101.382812 1940.640625 1065.117188 C 1940.453125 1064.746094 1940.140625 1064.308594 1939.890625 1063.808594 Z M 1939.890625 1063.808594 " fill-opacity="1" fill-rule="nonzero"/><path fill="#dab6a7" d="M 2179.226562 1010.222656 C 2139.097656 1033.277344 2120.53125 1076.210938 2120.53125 1076.210938 C 2120.53125 1076.210938 2167.015625 1081.816406 2207.078125 1058.824219 C 2207.453125 1058.574219 2207.890625 1058.390625 2208.265625 1058.140625 C 2239.355469 1039.757812 2211.878906 991.964844 2180.347656 1009.539062 C 2180.039062 1009.785156 2179.664062 1009.972656 2179.226562 1010.222656 Z M 2179.226562 1010.222656 " fill-opacity="1" fill-rule="nonzero"/><path fill="#dab6a7" d="M 2186.578125 1134.90625 C 2163.523438 1094.777344 2120.59375 1076.210938 2120.59375 1076.210938 C 2120.59375 1076.210938 2114.984375 1122.695312 2137.976562 1162.757812 C 2138.226562 1163.132812 2138.414062 1163.570312 2138.664062 1163.941406 C 2157.042969 1195.035156 2204.835938 1167.558594 2187.265625 1136.027344 C 2187.015625 1135.714844 2186.765625 1135.28125 2186.578125 1134.90625 Z M 2186.578125 1134.90625 " fill-opacity="1" fill-rule="nonzero"/><path fill="#dab6a7" d="M 2443.859375 1083.4375 C 2410.835938 1102.378906 2395.570312 1137.773438 2395.570312 1137.773438 C 2395.570312 1137.773438 2433.828125 1142.382812 2466.851562 1123.441406 C 2467.164062 1123.253906 2467.539062 1123.066406 2467.851562 1122.878906 C 2493.460938 1107.738281 2470.839844 1068.421875 2444.855469 1082.878906 C 2444.546875 1083.0625 2444.234375 1083.25 2443.859375 1083.4375 Z M 2443.859375 1083.4375 " fill-opacity="1" fill-rule="nonzero"/><path fill="#dab6a7" d="M 2449.90625 1186.0625 C 2430.960938 1153.039062 2395.570312 1137.773438 2395.570312 1137.773438 C 2395.570312 1137.773438 2390.957031 1176.03125 2409.902344 1209.054688 C 2410.085938 1209.367188 2410.273438 1209.742188 2410.460938 1210.054688 C 2425.601562 1235.664062 2464.921875 1213.042969 2450.464844 1187.058594 C 2450.277344 1186.6875 2450.089844 1186.375 2449.90625 1186.0625 Z M 2449.90625 1186.0625 " fill-opacity="1" fill-rule="nonzero"/><path fill="#dab6a7" d="M 2717.839844 1102.941406 C 2695.40625 1122.507812 2689.050781 1151.917969 2689.050781 1151.917969 C 2689.050781 1151.917969 2719.085938 1149.675781 2741.519531 1130.109375 C 2741.765625 1129.921875 2741.953125 1129.734375 2742.203125 1129.546875 C 2759.527344 1114.09375 2736.222656 1087.300781 2718.527344 1102.378906 C 2718.277344 1102.566406 2718.089844 1102.753906 2717.839844 1102.941406 Z M 2717.839844 1102.941406 " fill-opacity="1" fill-rule="nonzero"/><path fill="#dab6a7" d="M 2738.027344 1180.703125 C 2718.460938 1158.273438 2689.050781 1151.917969 2689.050781 1151.917969 C 2689.050781 1151.917969 2691.296875 1181.949219 2710.859375 1204.382812 C 2711.046875 1204.632812 2711.234375 1204.820312 2711.421875 1205.066406 C 2726.875 1222.390625 2753.667969 1199.085938 2738.589844 1181.390625 C 2738.402344 1181.203125 2738.214844 1180.953125 2738.027344 1180.703125 Z M 2738.027344 1180.703125 " fill-opacity="1" fill-rule="nonzero"/><path fill="#dab6a7" d="M 2960.414062 1068.109375 C 2960.414062 1068.109375 2986.148438 1021.625 2957.175781 1000.441406 C 2957.175781 1000.441406 3011.449219 1021.4375 2960.414062 1068.109375 Z M 2960.414062 1068.109375 " fill-opacity="1" fill-rule="nonzero"/><path fill="#dab6a7" d="M 2958.855469 1069.105469 C 2958.855469 1069.105469 3005.339844 1043.371094 3026.527344 1072.347656 C 3026.464844 1072.410156 3005.464844 1018.074219 2958.855469 1069.105469 Z M 2958.855469 1069.105469 " fill-opacity="1" fill-rule="nonzero"/><path fill="#dab6a7" d="M 3014.625 1024.304688 C 3014.625 1024.960938 3014.5625 1025.609375 3014.433594 1026.25 C 3014.304688 1026.890625 3014.117188 1027.515625 3013.867188 1028.121094 C 3013.617188 1028.726562 3013.308594 1029.300781 3012.945312 1029.84375 C 3012.582031 1030.386719 3012.167969 1030.890625 3011.707031 1031.355469 C 3011.242188 1031.816406 3010.738281 1032.230469 3010.195312 1032.59375 C 3009.648438 1032.957031 3009.074219 1033.265625 3008.46875 1033.515625 C 3007.867188 1033.765625 3007.242188 1033.957031 3006.601562 1034.082031 C 3005.957031 1034.210938 3005.308594 1034.273438 3004.65625 1034.273438 C 3004 1034.273438 3003.351562 1034.210938 3002.710938 1034.082031 C 3002.066406 1033.957031 3001.445312 1033.765625 3000.839844 1033.515625 C 3000.234375 1033.265625 2999.660156 1032.957031 2999.117188 1032.59375 C 2998.570312 1032.230469 2998.066406 1031.816406 2997.605469 1031.355469 C 2997.140625 1030.890625 2996.730469 1030.386719 2996.367188 1029.84375 C 2996 1029.300781 2995.695312 1028.726562 2995.445312 1028.121094 C 2995.195312 1027.515625 2995.003906 1026.890625 2994.878906 1026.25 C 2994.75 1025.609375 2994.6875 1024.960938 2994.6875 1024.304688 C 2994.6875 1023.652344 2994.75 1023.003906 2994.875 1022.359375 C 2995.003906 1021.71875 2995.195312 1021.09375 2995.445312 1020.488281 C 2995.695312 1019.886719 2996 1019.308594 2996.367188 1018.765625 C 2996.730469 1018.222656 2997.144531 1017.71875 2997.605469 1017.253906 C 2998.070312 1016.792969 2998.570312 1016.378906 2999.117188 1016.015625 C 2999.660156 1015.652344 3000.234375 1015.34375 3000.839844 1015.09375 C 3001.445312 1014.84375 3002.066406 1014.65625 3002.710938 1014.527344 C 3003.351562 1014.398438 3004 1014.335938 3004.65625 1014.335938 C 3005.308594 1014.335938 3005.957031 1014.398438 3006.601562 1014.527344 C 3007.242188 1014.65625 3007.867188 1014.84375 3008.46875 1015.09375 C 3009.074219 1015.34375 3009.648438 1015.652344 3010.195312 1016.015625 C 3010.738281 1016.378906 3011.242188 1016.792969 3011.703125 1017.253906 C 3012.167969 1017.71875 3012.582031 1018.222656 3012.945312 1018.765625 C 3013.308594 1019.308594 3013.617188 1019.886719 3013.867188 1020.488281 C 3014.117188 1021.09375 3014.304688 1021.71875 3014.433594 1022.359375 C 3014.5625 1023.003906 3014.625 1023.652344 3014.625 1024.304688 Z M 3014.625 1024.304688 " fill-opacity="1" fill-rule="nonzero"/><path fill="#dab6a7" d="M 1535.996094 942.117188 C 1521.976562 944.359375 1506.769531 937.878906 1496.550781 926.914062 C 1486.207031 915.882812 1480.289062 900.804688 1479.605469 885.414062 C 1478.792969 870.023438 1483.53125 854.074219 1493.25 841.238281 C 1502.90625 828.464844 1518.984375 819.367188 1536.058594 819.367188 C 1544.46875 819.367188 1552.945312 821.546875 1560.296875 825.472656 C 1567.648438 829.398438 1573.941406 834.882812 1578.863281 841.238281 C 1588.585938 854.074219 1593.320312 870.023438 1592.511719 885.414062 C 1591.824219 900.804688 1585.90625 915.882812 1575.5625 926.914062 C 1565.28125 937.878906 1550.078125 944.359375 1535.996094 942.117188 C 1549.953125 940.0625 1561.417969 931.835938 1568.335938 921.117188 C 1575.5 910.527344 1578.429688 897.691406 1577.804688 885.414062 C 1576.871094 873.140625 1572.757812 861.175781 1564.96875 852.390625 C 1557.429688 843.542969 1546.835938 837.996094 1535.933594 838.058594 C 1524.964844 837.808594 1514.375 843.480469 1506.894531 852.328125 C 1499.105469 861.113281 1494.996094 873.078125 1494.058594 885.414062 C 1493.5 897.753906 1496.429688 910.527344 1503.59375 921.179688 C 1510.574219 931.835938 1522.039062 940.0625 1535.996094 942.117188 Z M 1535.996094 942.117188 " fill-opacity="1" fill-rule="nonzero"/></svg>