<svg xmlns="http://www.w3.org/2000/svg" xmlns:xlink="http://www.w3.org/1999/xlink" width="294" zoomAndPan="magnify" viewBox="0 0 220.5 68.999997" height="92" preserveAspectRatio="xMidYMid meet" version="1.0"><path fill="#dab6a7" d="M 110 36.8125 C 108.917969 37.171875 107.832031 37.515625 106.734375 37.820312 C 105.640625 38.128906 104.53125 38.410156 103.425781 38.640625 C 102.3125 38.855469 101.191406 39.023438 100.070312 39.109375 C 98.945312 39.175781 97.820312 39.171875 96.703125 39.066406 C 95.585938 38.953125 94.476562 38.757812 93.382812 38.503906 C 92.292969 38.234375 91.207031 37.914062 90.132812 37.566406 C 87.980469 36.855469 85.847656 36.078125 83.695312 35.300781 C 79.410156 33.730469 75.070312 32.277344 70.695312 30.960938 C 68.507812 30.289062 66.308594 29.683594 64.089844 29.140625 L 57.445312 27.445312 C 56.335938 27.171875 55.234375 26.878906 54.117188 26.625 C 52.996094 26.378906 51.878906 26.140625 50.753906 25.917969 C 48.503906 25.476562 46.238281 25.097656 43.96875 24.789062 C 39.421875 24.195312 34.828125 23.851562 30.238281 23.972656 C 25.652344 24.082031 21.054688 24.644531 16.613281 25.824219 C 14.398438 26.429688 12.226562 27.207031 10.148438 28.171875 C 8.082031 29.152344 6.085938 30.316406 4.351562 31.8125 L 4.304688 31.855469 L 4.179688 31.957031 L 4.175781 31.960938 L 3.976562 32.140625 L 4.1875 31.972656 L 4.191406 31.96875 L 4.320312 31.878906 L 4.363281 31.839844 C 8.039062 29.128906 12.378906 27.511719 16.777344 26.496094 C 18.980469 25.984375 21.222656 25.632812 23.472656 25.410156 C 25.722656 25.160156 27.980469 25.0625 30.246094 25.054688 C 34.773438 25.0625 39.296875 25.417969 43.785156 26.082031 C 48.269531 26.738281 52.726562 27.601562 57.121094 28.777344 L 63.742188 30.429688 C 64.839844 30.710938 65.953125 30.960938 67.046875 31.273438 L 70.332031 32.199219 C 74.710938 33.441406 79.027344 34.859375 83.347656 36.304688 C 85.503906 37.019531 87.667969 37.777344 89.871094 38.417969 C 90.972656 38.734375 92.085938 39.03125 93.21875 39.265625 C 94.351562 39.488281 95.5 39.660156 96.65625 39.726562 C 97.8125 39.78125 98.972656 39.734375 100.117188 39.617188 C 101.265625 39.484375 102.394531 39.257812 103.507812 38.988281 C 105.738281 38.433594 107.882812 37.667969 110 36.8125 Z M 110 36.8125 " fill-opacity="1" fill-rule="nonzero"/><path fill="#dab6a7" d="M 101.375 47.152344 C 104.757812 43.507812 105.292969 38.503906 105.292969 38.503906 C 105.292969 38.503906 100.34375 39.410156 96.957031 43.058594 C 96.925781 43.09375 96.890625 43.132812 96.855469 43.167969 C 94.25 46.046875 98.601562 50.082031 101.273438 47.265625 C 101.308594 47.226562 101.339844 47.191406 101.375 47.152344 Z M 101.375 47.152344 " fill-opacity="1" fill-rule="nonzero"/><path fill="#dab6a7" d="M 96.636719 34.585938 C 100.285156 37.964844 105.289062 38.503906 105.289062 38.503906 C 105.289062 38.503906 104.382812 33.550781 100.734375 30.167969 C 100.695312 30.132812 100.660156 30.097656 100.625 30.066406 C 97.742188 27.460938 93.710938 31.808594 96.527344 34.484375 C 96.5625 34.515625 96.601562 34.550781 96.636719 34.585938 Z M 96.636719 34.585938 " fill-opacity="1" fill-rule="nonzero"/><path fill="#dab6a7" d="M 80.882812 42.097656 C 84.277344 40.148438 85.851562 36.511719 85.851562 36.511719 C 85.851562 36.511719 81.921875 36.035156 78.527344 37.984375 C 78.492188 38.003906 78.457031 38.023438 78.425781 38.042969 C 75.792969 39.597656 78.117188 43.644531 80.789062 42.152344 C 80.816406 42.140625 80.851562 42.117188 80.882812 42.097656 Z M 80.882812 42.097656 " fill-opacity="1" fill-rule="nonzero"/><path fill="#dab6a7" d="M 80.265625 31.546875 C 82.214844 34.941406 85.851562 36.515625 85.851562 36.515625 C 85.851562 36.515625 86.328125 32.585938 84.378906 29.191406 C 84.359375 29.15625 84.339844 29.121094 84.320312 29.089844 C 82.765625 26.457031 78.71875 28.78125 80.210938 31.453125 C 80.226562 31.480469 80.246094 31.511719 80.265625 31.546875 Z M 80.265625 31.546875 " fill-opacity="1" fill-rule="nonzero"/><path fill="#dab6a7" d="M 62.644531 35.492188 C 65.597656 33.796875 66.964844 30.632812 66.964844 30.632812 C 66.964844 30.632812 63.542969 30.222656 60.59375 31.914062 C 60.566406 31.933594 60.535156 31.945312 60.507812 31.964844 C 58.21875 33.320312 60.238281 36.835938 62.5625 35.542969 C 62.585938 35.523438 62.617188 35.511719 62.644531 35.492188 Z M 62.644531 35.492188 " fill-opacity="1" fill-rule="nonzero"/><path fill="#dab6a7" d="M 62.105469 26.3125 C 63.804688 29.269531 66.964844 30.632812 66.964844 30.632812 C 66.964844 30.632812 67.378906 27.210938 65.683594 24.261719 C 65.667969 24.234375 65.652344 24.203125 65.636719 24.175781 C 64.28125 21.886719 60.761719 23.910156 62.058594 26.230469 C 62.070312 26.253906 62.089844 26.285156 62.105469 26.3125 Z M 62.105469 26.3125 " fill-opacity="1" fill-rule="nonzero"/><path fill="#dab6a7" d="M 43.160156 30.101562 C 45.59375 28.707031 46.714844 26.101562 46.714844 26.101562 C 46.714844 26.101562 43.898438 25.761719 41.46875 27.15625 C 41.445312 27.171875 41.417969 27.183594 41.394531 27.199219 C 39.507812 28.3125 41.175781 31.207031 43.085938 30.144531 C 43.113281 30.128906 43.136719 30.117188 43.160156 30.101562 Z M 43.160156 30.101562 " fill-opacity="1" fill-rule="nonzero"/><path fill="#dab6a7" d="M 42.71875 22.546875 C 44.113281 24.976562 46.722656 26.101562 46.722656 26.101562 C 46.722656 26.101562 47.058594 23.285156 45.664062 20.855469 C 45.652344 20.832031 45.636719 20.804688 45.625 20.78125 C 44.507812 18.894531 41.613281 20.5625 42.679688 22.472656 C 42.691406 22.5 42.707031 22.523438 42.71875 22.546875 Z M 42.71875 22.546875 " fill-opacity="1" fill-rule="nonzero"/><path fill="#dab6a7" d="M 22.988281 28.667969 C 24.640625 27.226562 25.109375 25.0625 25.109375 25.0625 C 25.109375 25.0625 22.898438 25.226562 21.246094 26.667969 C 21.226562 26.679688 21.214844 26.695312 21.195312 26.707031 C 19.921875 27.84375 21.636719 29.816406 22.9375 28.707031 C 22.957031 28.695312 22.976562 28.679688 22.988281 28.667969 Z M 22.988281 28.667969 " fill-opacity="1" fill-rule="nonzero"/><path fill="#dab6a7" d="M 21.503906 22.941406 C 22.945312 24.59375 25.109375 25.0625 25.109375 25.0625 C 25.109375 25.0625 24.945312 22.851562 23.503906 21.199219 C 23.488281 21.179688 23.476562 21.167969 23.460938 21.148438 C 22.324219 19.871094 20.351562 21.589844 21.460938 22.890625 C 21.476562 22.90625 21.488281 22.921875 21.503906 22.941406 Z M 21.503906 22.941406 " fill-opacity="1" fill-rule="nonzero"/><path fill="#dab6a7" d="M 5.128906 31.230469 C 5.128906 31.230469 3.234375 34.652344 5.371094 36.214844 C 5.371094 36.214844 1.375 34.667969 5.128906 31.230469 Z M 5.128906 31.230469 " fill-opacity="1" fill-rule="nonzero"/><path fill="#dab6a7" d="M 5.25 31.15625 C 5.25 31.15625 1.828125 33.050781 0.269531 30.917969 C 0.269531 30.914062 1.8125 34.914062 5.25 31.15625 Z M 5.25 31.15625 " fill-opacity="1" fill-rule="nonzero"/><path fill="#dab6a7" d="M 2.609375 34.457031 C 2.609375 34.253906 2.535156 34.082031 2.394531 33.9375 C 2.25 33.792969 2.078125 33.722656 1.875 33.722656 C 1.671875 33.722656 1.496094 33.792969 1.355469 33.9375 C 1.210938 34.082031 1.140625 34.253906 1.140625 34.457031 C 1.140625 34.660156 1.210938 34.832031 1.355469 34.976562 C 1.496094 35.117188 1.671875 35.191406 1.875 35.191406 C 2.078125 35.191406 2.25 35.117188 2.394531 34.976562 C 2.535156 34.832031 2.609375 34.660156 2.609375 34.457031 Z M 2.609375 34.457031 " fill-opacity="1" fill-rule="nonzero"/><path fill="#dab6a7" d="M 110 36.8125 C 112.121094 37.667969 114.265625 38.433594 116.496094 38.992188 C 117.609375 39.265625 118.738281 39.488281 119.886719 39.621094 C 121.035156 39.746094 122.195312 39.792969 123.351562 39.730469 C 124.507812 39.664062 125.652344 39.492188 126.785156 39.269531 C 127.914062 39.035156 129.03125 38.742188 130.136719 38.425781 C 132.335938 37.78125 134.503906 37.03125 136.660156 36.308594 C 140.980469 34.863281 145.300781 33.445312 149.671875 32.203125 L 152.957031 31.277344 C 154.054688 30.964844 155.160156 30.71875 156.265625 30.433594 L 162.886719 28.78125 C 167.28125 27.605469 171.734375 26.738281 176.222656 26.089844 C 180.703125 25.421875 185.230469 25.0625 189.757812 25.0625 C 192.023438 25.066406 194.28125 25.167969 196.535156 25.414062 C 198.785156 25.640625 201.027344 25.988281 203.226562 26.5 C 207.625 27.511719 211.960938 29.128906 215.640625 31.847656 L 215.6875 31.882812 L 215.816406 31.972656 L 215.820312 31.980469 L 216.03125 32.144531 L 215.828125 31.964844 L 215.824219 31.960938 L 215.699219 31.859375 L 215.65625 31.816406 C 213.921875 30.328125 211.925781 29.164062 209.855469 28.175781 C 207.777344 27.207031 205.609375 26.433594 203.390625 25.828125 C 198.953125 24.648438 194.355469 24.089844 189.769531 23.976562 C 185.175781 23.855469 180.582031 24.199219 176.039062 24.792969 C 173.765625 25.101562 171.5 25.484375 169.253906 25.921875 C 168.128906 26.144531 167.003906 26.378906 165.890625 26.628906 C 164.769531 26.882812 163.667969 27.175781 162.558594 27.449219 L 155.917969 29.144531 C 153.695312 29.691406 151.5 30.300781 149.3125 30.964844 C 144.933594 32.285156 140.59375 33.742188 136.308594 35.304688 C 134.160156 36.078125 132.03125 36.859375 129.875 37.570312 C 128.796875 37.917969 127.710938 38.242188 126.621094 38.507812 C 125.523438 38.765625 124.417969 38.957031 123.304688 39.070312 C 122.191406 39.175781 121.0625 39.179688 119.9375 39.113281 C 118.8125 39.035156 117.695312 38.863281 116.578125 38.644531 C 115.472656 38.414062 114.363281 38.136719 113.269531 37.824219 C 112.171875 37.515625 111.082031 37.171875 110 36.8125 Z M 110 36.8125 " fill-opacity="1" fill-rule="nonzero"/><path fill="#dab6a7" d="M 118.628906 47.152344 C 115.25 43.507812 114.710938 38.503906 114.710938 38.503906 C 114.710938 38.503906 119.660156 39.410156 123.046875 43.058594 C 123.078125 43.09375 123.117188 43.132812 123.148438 43.167969 C 125.753906 46.046875 121.40625 50.082031 118.730469 47.265625 C 118.699219 47.226562 118.660156 47.191406 118.628906 47.152344 Z M 118.628906 47.152344 " fill-opacity="1" fill-rule="nonzero"/><path fill="#dab6a7" d="M 123.363281 34.585938 C 119.71875 37.964844 114.710938 38.503906 114.710938 38.503906 C 114.710938 38.503906 115.621094 33.550781 119.265625 30.167969 C 119.304688 30.132812 119.339844 30.097656 119.378906 30.066406 C 122.257812 27.460938 126.289062 31.808594 123.472656 34.484375 C 123.4375 34.515625 123.402344 34.550781 123.363281 34.585938 Z M 123.363281 34.585938 " fill-opacity="1" fill-rule="nonzero"/><path fill="#dab6a7" d="M 139.117188 42.097656 C 135.722656 40.148438 134.148438 36.511719 134.148438 36.511719 C 134.148438 36.511719 138.082031 36.035156 141.476562 37.984375 C 141.507812 38.003906 141.542969 38.023438 141.578125 38.042969 C 144.210938 39.597656 141.882812 43.644531 139.214844 42.152344 C 139.1875 42.140625 139.152344 42.117188 139.117188 42.097656 Z M 139.117188 42.097656 " fill-opacity="1" fill-rule="nonzero"/><path fill="#dab6a7" d="M 139.738281 31.546875 C 137.785156 34.941406 134.148438 36.515625 134.148438 36.515625 C 134.148438 36.515625 133.671875 32.585938 135.621094 29.191406 C 135.640625 29.15625 135.664062 29.121094 135.679688 29.089844 C 137.238281 26.457031 141.28125 28.78125 139.792969 31.453125 C 139.777344 31.480469 139.753906 31.511719 139.738281 31.546875 Z M 139.738281 31.546875 " fill-opacity="1" fill-rule="nonzero"/><path fill="#dab6a7" d="M 157.355469 35.492188 C 154.402344 33.796875 153.035156 30.632812 153.035156 30.632812 C 153.035156 30.632812 156.457031 30.222656 159.40625 31.914062 C 159.433594 31.933594 159.46875 31.945312 159.496094 31.964844 C 161.785156 33.320312 159.761719 36.835938 157.441406 35.542969 C 157.417969 35.523438 157.390625 35.511719 157.355469 35.492188 Z M 157.355469 35.492188 " fill-opacity="1" fill-rule="nonzero"/><path fill="#dab6a7" d="M 157.898438 26.3125 C 156.199219 29.269531 153.039062 30.632812 153.039062 30.632812 C 153.039062 30.632812 152.628906 27.210938 154.320312 24.261719 C 154.339844 24.234375 154.351562 24.203125 154.371094 24.175781 C 155.722656 21.886719 159.242188 23.910156 157.949219 26.230469 C 157.929688 26.253906 157.914062 26.285156 157.898438 26.3125 Z M 157.898438 26.3125 " fill-opacity="1" fill-rule="nonzero"/><path fill="#dab6a7" d="M 176.839844 30.101562 C 174.410156 28.707031 173.285156 26.101562 173.285156 26.101562 C 173.285156 26.101562 176.101562 25.761719 178.53125 27.15625 C 178.554688 27.171875 178.582031 27.183594 178.605469 27.199219 C 180.492188 28.3125 178.828125 31.207031 176.914062 30.144531 C 176.890625 30.128906 176.867188 30.117188 176.839844 30.101562 Z M 176.839844 30.101562 " fill-opacity="1" fill-rule="nonzero"/><path fill="#dab6a7" d="M 177.285156 22.546875 C 175.890625 24.976562 173.285156 26.101562 173.285156 26.101562 C 173.285156 26.101562 172.945312 23.285156 174.339844 20.855469 C 174.355469 20.832031 174.367188 20.804688 174.382812 20.78125 C 175.496094 18.894531 178.390625 20.5625 177.328125 22.472656 C 177.3125 22.5 177.300781 22.523438 177.285156 22.546875 Z M 177.285156 22.546875 " fill-opacity="1" fill-rule="nonzero"/><path fill="#dab6a7" d="M 197.011719 28.667969 C 195.359375 27.226562 194.890625 25.0625 194.890625 25.0625 C 194.890625 25.0625 197.101562 25.226562 198.753906 26.667969 C 198.773438 26.679688 198.785156 26.695312 198.804688 26.707031 C 200.082031 27.84375 198.363281 29.816406 197.0625 28.707031 C 197.042969 28.695312 197.03125 28.679688 197.011719 28.667969 Z M 197.011719 28.667969 " fill-opacity="1" fill-rule="nonzero"/><path fill="#dab6a7" d="M 198.496094 22.941406 C 197.058594 24.59375 194.890625 25.0625 194.890625 25.0625 C 194.890625 25.0625 195.058594 22.851562 196.496094 21.199219 C 196.511719 21.179688 196.523438 21.167969 196.539062 21.148438 C 197.675781 19.871094 199.648438 21.589844 198.539062 22.890625 C 198.523438 22.90625 198.511719 22.921875 198.496094 22.941406 Z M 198.496094 22.941406 " fill-opacity="1" fill-rule="nonzero"/><path fill="#dab6a7" d="M 214.871094 31.230469 C 214.871094 31.230469 216.765625 34.652344 214.632812 36.214844 C 214.632812 36.214844 218.628906 34.667969 214.871094 31.230469 Z M 214.871094 31.230469 " fill-opacity="1" fill-rule="nonzero"/><path fill="#dab6a7" d="M 214.753906 31.15625 C 214.753906 31.15625 218.179688 33.050781 219.738281 30.917969 C 219.734375 30.914062 218.1875 34.914062 214.753906 31.15625 Z M 214.753906 31.15625 " fill-opacity="1" fill-rule="nonzero"/><path fill="#dab6a7" d="M 218.863281 34.457031 C 218.863281 34.253906 218.789062 34.082031 218.648438 33.9375 C 218.503906 33.792969 218.332031 33.722656 218.128906 33.722656 C 217.925781 33.722656 217.75 33.792969 217.609375 33.9375 C 217.464844 34.082031 217.394531 34.253906 217.394531 34.457031 C 217.394531 34.660156 217.464844 34.832031 217.609375 34.976562 C 217.75 35.117188 217.925781 35.191406 218.128906 35.191406 C 218.332031 35.191406 218.503906 35.117188 218.648438 34.976562 C 218.789062 34.832031 218.863281 34.660156 218.863281 34.457031 Z M 218.863281 34.457031 " fill-opacity="1" fill-rule="nonzero"/><path fill="#dab6a7" d="M 110 40.507812 C 108.96875 40.34375 107.847656 40.820312 107.097656 41.625 C 106.335938 42.4375 105.898438 43.546875 105.847656 44.679688 C 105.789062 45.816406 106.136719 46.988281 106.855469 47.933594 C 107.566406 48.875 108.75 49.542969 110.003906 49.542969 C 110.625 49.542969 111.25 49.382812 111.789062 49.09375 C 112.332031 48.804688 112.792969 48.402344 113.15625 47.933594 C 113.871094 46.988281 114.222656 45.816406 114.160156 44.679688 C 114.109375 43.546875 113.675781 42.4375 112.914062 41.625 C 112.15625 40.820312 111.039062 40.34375 110 40.507812 C 111.027344 40.660156 111.871094 41.265625 112.382812 42.054688 C 112.910156 42.832031 113.125 43.777344 113.078125 44.679688 C 113.011719 45.585938 112.707031 46.464844 112.132812 47.113281 C 111.578125 47.765625 110.796875 48.171875 109.996094 48.167969 C 109.1875 48.1875 108.410156 47.769531 107.859375 47.117188 C 107.285156 46.46875 106.980469 45.589844 106.914062 44.679688 C 106.871094 43.773438 107.085938 42.832031 107.613281 42.046875 C 108.128906 41.265625 108.972656 40.660156 110 40.507812 Z M 110 40.507812 " fill-opacity="1" fill-rule="nonzero"/></svg>