<svg xmlns="http://www.w3.org/2000/svg" xmlns:xlink="http://www.w3.org/1999/xlink" width="294" zoomAndPan="magnify" viewBox="0 0 220.5 68.999997" height="92" preserveAspectRatio="xMidYMid meet" version="1.0"><path fill="#dab6a7" d="M 110 27.109375 C 108.917969 26.75 107.832031 26.40625 106.734375 26.105469 C 105.640625 25.792969 104.53125 25.511719 103.425781 25.28125 C 102.3125 25.066406 101.191406 24.898438 100.070312 24.816406 C 98.945312 24.746094 97.820312 24.75 96.703125 24.855469 C 95.585938 24.972656 94.476562 25.164062 93.382812 25.421875 C 92.292969 25.6875 91.207031 26.007812 90.132812 26.355469 C 87.980469 27.066406 85.847656 27.84375 83.695312 28.621094 C 79.410156 30.191406 75.070312 31.644531 70.695312 32.960938 C 68.507812 33.632812 66.308594 34.238281 64.089844 34.785156 L 57.445312 36.476562 C 56.335938 36.75 55.234375 37.046875 54.117188 37.296875 C 52.996094 37.546875 51.878906 37.785156 50.753906 38.003906 C 48.503906 38.445312 46.238281 38.824219 43.96875 39.132812 C 39.421875 39.730469 34.828125 40.074219 30.238281 39.949219 C 25.652344 39.839844 21.054688 39.28125 16.613281 38.101562 C 14.398438 37.496094 12.226562 36.714844 10.148438 35.75 C 8.082031 34.769531 6.085938 33.605469 4.351562 32.109375 L 4.304688 32.066406 L 4.179688 31.96875 L 4.175781 31.960938 L 3.976562 31.785156 L 4.1875 31.949219 L 4.191406 31.953125 L 4.320312 32.046875 L 4.363281 32.082031 C 8.039062 34.792969 12.378906 36.414062 16.777344 37.425781 C 18.980469 37.941406 21.222656 38.289062 23.472656 38.511719 C 25.722656 38.761719 27.980469 38.863281 30.246094 38.867188 C 34.773438 38.863281 39.296875 38.503906 43.785156 37.839844 C 48.269531 37.183594 52.726562 36.320312 57.121094 35.144531 L 63.742188 33.496094 C 64.839844 33.210938 65.953125 32.960938 67.046875 32.652344 L 70.332031 31.722656 C 74.710938 30.480469 79.027344 29.0625 83.347656 27.617188 C 85.503906 26.902344 87.667969 26.144531 89.871094 25.503906 C 90.972656 25.1875 92.085938 24.894531 93.21875 24.660156 C 94.351562 24.433594 95.5 24.265625 96.65625 24.195312 C 97.8125 24.140625 98.972656 24.1875 100.117188 24.304688 C 101.265625 24.4375 102.394531 24.664062 103.507812 24.933594 C 105.738281 25.488281 107.882812 26.253906 110 27.109375 Z M 110 27.109375 " fill-opacity="1" fill-rule="nonzero"/><path fill="#dab6a7" d="M 101.375 16.769531 C 104.757812 20.414062 105.292969 25.421875 105.292969 25.421875 C 105.292969 25.421875 100.34375 24.511719 96.957031 20.867188 C 96.925781 20.828125 96.890625 20.792969 96.855469 20.753906 C 94.25 17.875 98.601562 13.84375 101.273438 16.660156 C 101.308594 16.695312 101.339844 16.730469 101.375 16.769531 Z M 101.375 16.769531 " fill-opacity="1" fill-rule="nonzero"/><path fill="#dab6a7" d="M 96.636719 29.339844 C 100.285156 25.957031 105.289062 25.421875 105.289062 25.421875 C 105.289062 25.421875 104.382812 30.371094 100.734375 33.757812 C 100.695312 33.789062 100.660156 33.824219 100.625 33.855469 C 97.742188 36.460938 93.710938 32.113281 96.527344 29.4375 C 96.5625 29.40625 96.601562 29.371094 96.636719 29.339844 Z M 96.636719 29.339844 " fill-opacity="1" fill-rule="nonzero"/><path fill="#dab6a7" d="M 80.882812 21.824219 C 84.277344 23.773438 85.851562 27.410156 85.851562 27.410156 C 85.851562 27.410156 81.921875 27.890625 78.527344 25.9375 C 78.492188 25.921875 78.457031 25.898438 78.425781 25.878906 C 75.792969 24.324219 78.117188 20.277344 80.789062 21.769531 C 80.816406 21.78125 80.851562 21.804688 80.882812 21.824219 Z M 80.882812 21.824219 " fill-opacity="1" fill-rule="nonzero"/><path fill="#dab6a7" d="M 80.265625 32.375 C 82.214844 28.980469 85.851562 27.40625 85.851562 27.40625 C 85.851562 27.40625 86.328125 31.339844 84.378906 34.734375 C 84.359375 34.765625 84.339844 34.800781 84.320312 34.835938 C 82.765625 37.46875 78.71875 35.140625 80.210938 32.472656 C 80.226562 32.445312 80.246094 32.410156 80.265625 32.375 Z M 80.265625 32.375 " fill-opacity="1" fill-rule="nonzero"/><path fill="#dab6a7" d="M 62.644531 28.429688 C 65.597656 30.128906 66.964844 33.289062 66.964844 33.289062 C 66.964844 33.289062 63.542969 33.699219 60.59375 32.007812 C 60.566406 31.988281 60.535156 31.976562 60.507812 31.957031 C 58.21875 30.605469 60.238281 27.085938 62.5625 28.378906 C 62.585938 28.398438 62.617188 28.410156 62.644531 28.429688 Z M 62.644531 28.429688 " fill-opacity="1" fill-rule="nonzero"/><path fill="#dab6a7" d="M 62.105469 37.609375 C 63.804688 34.65625 66.964844 33.289062 66.964844 33.289062 C 66.964844 33.289062 67.378906 36.710938 65.683594 39.660156 C 65.667969 39.6875 65.652344 39.71875 65.636719 39.746094 C 64.28125 42.035156 60.761719 40.011719 62.058594 37.691406 C 62.070312 37.667969 62.089844 37.636719 62.105469 37.609375 Z M 62.105469 37.609375 " fill-opacity="1" fill-rule="nonzero"/><path fill="#dab6a7" d="M 43.160156 33.820312 C 45.59375 35.214844 46.714844 37.820312 46.714844 37.820312 C 46.714844 37.820312 43.898438 38.160156 41.46875 36.765625 C 41.445312 36.75 41.417969 36.738281 41.394531 36.722656 C 39.507812 35.609375 41.175781 32.714844 43.085938 33.777344 C 43.113281 33.792969 43.136719 33.804688 43.160156 33.820312 Z M 43.160156 33.820312 " fill-opacity="1" fill-rule="nonzero"/><path fill="#dab6a7" d="M 42.71875 41.375 C 44.113281 38.945312 46.722656 37.820312 46.722656 37.820312 C 46.722656 37.820312 47.058594 40.636719 45.664062 43.070312 C 45.652344 43.089844 45.636719 43.121094 45.625 43.140625 C 44.507812 45.027344 41.613281 43.363281 42.679688 41.449219 C 42.691406 41.421875 42.707031 41.398438 42.71875 41.375 Z M 42.71875 41.375 " fill-opacity="1" fill-rule="nonzero"/><path fill="#dab6a7" d="M 22.988281 35.257812 C 24.640625 36.695312 25.109375 38.863281 25.109375 38.863281 C 25.109375 38.863281 22.898438 38.695312 21.246094 37.257812 C 21.226562 37.242188 21.214844 37.230469 21.195312 37.214844 C 19.921875 36.078125 21.636719 34.105469 22.9375 35.214844 C 22.957031 35.230469 22.976562 35.242188 22.988281 35.257812 Z M 22.988281 35.257812 " fill-opacity="1" fill-rule="nonzero"/><path fill="#dab6a7" d="M 21.503906 40.980469 C 22.945312 39.328125 25.109375 38.863281 25.109375 38.863281 C 25.109375 38.863281 24.945312 41.074219 23.503906 42.726562 C 23.488281 42.742188 23.476562 42.757812 23.460938 42.773438 C 22.324219 44.050781 20.351562 42.335938 21.460938 41.03125 C 21.476562 41.019531 21.488281 41 21.503906 40.980469 Z M 21.503906 40.980469 " fill-opacity="1" fill-rule="nonzero"/><path fill="#dab6a7" d="M 5.128906 32.691406 C 5.128906 32.691406 3.234375 29.269531 5.371094 27.710938 C 5.371094 27.710938 1.375 29.253906 5.128906 32.691406 Z M 5.128906 32.691406 " fill-opacity="1" fill-rule="nonzero"/><path fill="#dab6a7" d="M 5.25 32.765625 C 5.25 32.765625 1.828125 30.871094 0.269531 33.003906 C 0.269531 33.007812 1.8125 29.007812 5.25 32.765625 Z M 5.25 32.765625 " fill-opacity="1" fill-rule="nonzero"/><path fill="#dab6a7" d="M 2.609375 29.46875 C 2.609375 29.667969 2.535156 29.84375 2.394531 29.984375 C 2.25 30.128906 2.078125 30.199219 1.875 30.199219 C 1.671875 30.199219 1.496094 30.128906 1.355469 29.984375 C 1.210938 29.84375 1.140625 29.667969 1.140625 29.46875 C 1.140625 29.265625 1.210938 29.089844 1.355469 28.949219 C 1.496094 28.804688 1.671875 28.734375 1.875 28.734375 C 2.078125 28.734375 2.25 28.804688 2.394531 28.949219 C 2.535156 29.089844 2.609375 29.265625 2.609375 29.46875 Z M 2.609375 29.46875 " fill-opacity="1" fill-rule="nonzero"/><path fill="#dab6a7" d="M 110 27.109375 C 112.121094 26.253906 114.265625 25.488281 116.496094 24.929688 C 117.609375 24.660156 118.738281 24.433594 119.886719 24.300781 C 121.035156 24.175781 122.195312 24.132812 123.351562 24.191406 C 124.507812 24.261719 125.652344 24.429688 126.785156 24.65625 C 127.914062 24.886719 129.03125 25.183594 130.136719 25.5 C 132.335938 26.140625 134.503906 26.894531 136.660156 27.613281 C 140.980469 29.058594 145.300781 30.476562 149.671875 31.71875 L 152.957031 32.644531 C 154.054688 32.957031 155.160156 33.207031 156.265625 33.488281 L 162.886719 35.140625 C 167.28125 36.316406 171.734375 37.183594 176.222656 37.835938 C 180.703125 38.5 185.230469 38.863281 189.757812 38.863281 C 192.023438 38.859375 194.28125 38.757812 196.535156 38.507812 C 198.785156 38.285156 201.027344 37.933594 203.226562 37.421875 C 207.625 36.414062 211.960938 34.792969 215.640625 32.078125 L 215.6875 32.039062 L 215.816406 31.949219 L 215.820312 31.945312 L 216.03125 31.777344 L 215.828125 31.957031 L 215.824219 31.960938 L 215.699219 32.0625 L 215.65625 32.105469 C 213.921875 33.59375 211.925781 34.761719 209.855469 35.746094 C 207.777344 36.714844 205.609375 37.492188 203.390625 38.097656 C 198.953125 39.273438 194.355469 39.835938 189.769531 39.945312 C 185.175781 40.070312 180.582031 39.722656 176.039062 39.128906 C 173.765625 38.820312 171.5 38.441406 169.253906 38 C 168.128906 37.78125 167.003906 37.546875 165.890625 37.292969 C 164.769531 37.039062 163.667969 36.746094 162.558594 36.472656 L 155.917969 34.777344 C 153.695312 34.234375 151.5 33.625 149.3125 32.957031 C 144.933594 31.636719 140.59375 30.183594 136.308594 28.617188 C 134.160156 27.84375 132.03125 27.0625 129.875 26.351562 C 128.796875 26.003906 127.710938 25.683594 126.621094 25.417969 C 125.523438 25.160156 124.417969 24.964844 123.304688 24.851562 C 122.191406 24.746094 121.0625 24.742188 119.9375 24.8125 C 118.8125 24.886719 117.695312 25.058594 116.578125 25.277344 C 115.472656 25.507812 114.363281 25.789062 113.269531 26.101562 C 112.171875 26.40625 111.082031 26.75 110 27.109375 Z M 110 27.109375 " fill-opacity="1" fill-rule="nonzero"/><path fill="#dab6a7" d="M 118.628906 16.769531 C 115.25 20.414062 114.710938 25.421875 114.710938 25.421875 C 114.710938 25.421875 119.660156 24.511719 123.046875 20.867188 C 123.078125 20.828125 123.117188 20.792969 123.148438 20.753906 C 125.753906 17.875 121.40625 13.84375 118.730469 16.660156 C 118.699219 16.695312 118.660156 16.730469 118.628906 16.769531 Z M 118.628906 16.769531 " fill-opacity="1" fill-rule="nonzero"/><path fill="#dab6a7" d="M 123.363281 29.339844 C 119.71875 25.957031 114.710938 25.421875 114.710938 25.421875 C 114.710938 25.421875 115.621094 30.371094 119.265625 33.757812 C 119.304688 33.789062 119.339844 33.824219 119.378906 33.855469 C 122.257812 36.460938 126.289062 32.113281 123.472656 29.4375 C 123.4375 29.40625 123.402344 29.371094 123.363281 29.339844 Z M 123.363281 29.339844 " fill-opacity="1" fill-rule="nonzero"/><path fill="#dab6a7" d="M 139.117188 21.824219 C 135.722656 23.773438 134.148438 27.410156 134.148438 27.410156 C 134.148438 27.410156 138.082031 27.890625 141.476562 25.9375 C 141.507812 25.921875 141.542969 25.898438 141.578125 25.878906 C 144.210938 24.324219 141.882812 20.277344 139.214844 21.769531 C 139.1875 21.78125 139.152344 21.804688 139.117188 21.824219 Z M 139.117188 21.824219 " fill-opacity="1" fill-rule="nonzero"/><path fill="#dab6a7" d="M 139.738281 32.375 C 137.785156 28.980469 134.148438 27.40625 134.148438 27.40625 C 134.148438 27.40625 133.671875 31.339844 135.621094 34.734375 C 135.640625 34.765625 135.664062 34.800781 135.679688 34.835938 C 137.238281 37.46875 141.28125 35.140625 139.792969 32.472656 C 139.777344 32.445312 139.753906 32.410156 139.738281 32.375 Z M 139.738281 32.375 " fill-opacity="1" fill-rule="nonzero"/><path fill="#dab6a7" d="M 157.355469 28.429688 C 154.402344 30.128906 153.035156 33.289062 153.035156 33.289062 C 153.035156 33.289062 156.457031 33.699219 159.40625 32.007812 C 159.433594 31.988281 159.46875 31.976562 159.496094 31.957031 C 161.785156 30.605469 159.761719 27.085938 157.441406 28.378906 C 157.417969 28.398438 157.390625 28.410156 157.355469 28.429688 Z M 157.355469 28.429688 " fill-opacity="1" fill-rule="nonzero"/><path fill="#dab6a7" d="M 157.898438 37.609375 C 156.199219 34.65625 153.039062 33.289062 153.039062 33.289062 C 153.039062 33.289062 152.628906 36.710938 154.320312 39.660156 C 154.339844 39.6875 154.351562 39.71875 154.371094 39.746094 C 155.722656 42.035156 159.242188 40.011719 157.949219 37.691406 C 157.929688 37.667969 157.914062 37.636719 157.898438 37.609375 Z M 157.898438 37.609375 " fill-opacity="1" fill-rule="nonzero"/><path fill="#dab6a7" d="M 176.839844 33.820312 C 174.410156 35.214844 173.285156 37.820312 173.285156 37.820312 C 173.285156 37.820312 176.101562 38.160156 178.53125 36.765625 C 178.554688 36.75 178.582031 36.738281 178.605469 36.722656 C 180.492188 35.609375 178.828125 32.714844 176.914062 33.777344 C 176.890625 33.792969 176.867188 33.804688 176.839844 33.820312 Z M 176.839844 33.820312 " fill-opacity="1" fill-rule="nonzero"/><path fill="#dab6a7" d="M 177.285156 41.375 C 175.890625 38.945312 173.285156 37.820312 173.285156 37.820312 C 173.285156 37.820312 172.945312 40.636719 174.339844 43.070312 C 174.355469 43.089844 174.367188 43.121094 174.382812 43.140625 C 175.496094 45.027344 178.390625 43.363281 177.328125 41.449219 C 177.3125 41.421875 177.300781 41.398438 177.285156 41.375 Z M 177.285156 41.375 " fill-opacity="1" fill-rule="nonzero"/><path fill="#dab6a7" d="M 197.011719 35.257812 C 195.359375 36.695312 194.890625 38.863281 194.890625 38.863281 C 194.890625 38.863281 197.101562 38.695312 198.753906 37.257812 C 198.773438 37.242188 198.785156 37.230469 198.804688 37.214844 C 200.082031 36.078125 198.363281 34.105469 197.0625 35.214844 C 197.042969 35.230469 197.03125 35.242188 197.011719 35.257812 Z M 197.011719 35.257812 " fill-opacity="1" fill-rule="nonzero"/><path fill="#dab6a7" d="M 198.496094 40.980469 C 197.058594 39.328125 194.890625 38.863281 194.890625 38.863281 C 194.890625 38.863281 195.058594 41.074219 196.496094 42.726562 C 196.511719 42.742188 196.523438 42.757812 196.539062 42.773438 C 197.675781 44.050781 199.648438 42.335938 198.539062 41.03125 C 198.523438 41.019531 198.511719 41 198.496094 40.980469 Z M 198.496094 40.980469 " fill-opacity="1" fill-rule="nonzero"/><path fill="#dab6a7" d="M 214.871094 32.691406 C 214.871094 32.691406 216.765625 29.269531 214.632812 27.710938 C 214.632812 27.710938 218.628906 29.253906 214.871094 32.691406 Z M 214.871094 32.691406 " fill-opacity="1" fill-rule="nonzero"/><path fill="#dab6a7" d="M 214.753906 32.765625 C 214.753906 32.765625 218.179688 30.871094 219.738281 33.003906 C 219.734375 33.007812 218.1875 29.007812 214.753906 32.765625 Z M 214.753906 32.765625 " fill-opacity="1" fill-rule="nonzero"/><path fill="#dab6a7" d="M 218.863281 29.46875 C 218.863281 29.667969 218.789062 29.84375 218.648438 29.984375 C 218.503906 30.128906 218.332031 30.199219 218.128906 30.199219 C 217.925781 30.199219 217.75 30.128906 217.609375 29.984375 C 217.464844 29.84375 217.394531 29.667969 217.394531 29.46875 C 217.394531 29.265625 217.464844 29.089844 217.609375 28.949219 C 217.75 28.804688 217.925781 28.734375 218.128906 28.734375 C 218.332031 28.734375 218.503906 28.804688 218.648438 28.949219 C 218.789062 29.089844 218.863281 29.265625 218.863281 29.46875 Z M 218.863281 29.46875 " fill-opacity="1" fill-rule="nonzero"/><path fill="#dab6a7" d="M 110 23.414062 C 108.96875 23.582031 107.847656 23.105469 107.097656 22.296875 C 106.335938 21.484375 105.898438 20.375 105.847656 19.242188 C 105.789062 18.109375 106.136719 16.933594 106.855469 15.988281 C 107.566406 15.046875 108.75 14.378906 110.003906 14.378906 C 110.625 14.378906 111.25 14.539062 111.789062 14.828125 C 112.332031 15.117188 112.792969 15.519531 113.15625 15.988281 C 113.871094 16.933594 114.222656 18.109375 114.160156 19.242188 C 114.109375 20.375 113.675781 21.484375 112.914062 22.296875 C 112.15625 23.105469 111.039062 23.582031 110 23.414062 C 111.027344 23.265625 111.871094 22.660156 112.382812 21.871094 C 112.910156 21.089844 113.125 20.144531 113.078125 19.242188 C 113.011719 18.335938 112.707031 17.457031 112.132812 16.808594 C 111.578125 16.160156 110.796875 15.75 109.996094 15.753906 C 109.1875 15.738281 108.410156 16.152344 107.859375 16.804688 C 107.285156 17.453125 106.980469 18.332031 106.914062 19.242188 C 106.871094 20.148438 107.085938 21.089844 107.613281 21.875 C 108.128906 22.660156 108.972656 23.265625 110 23.414062 Z M 110 23.414062 " fill-opacity="1" fill-rule="nonzero"/></svg>